# xmcd
#
# Track frame offsets:
#	150
#	23911
#	40662
#	56425
#	77307
#	93052
#	110463
#	128789
#	146655
#	166322
#	182663
#	201162
#	224409
#	243184
#	260782
#	301149
#
# Disc length: 4195 seconds
#
# Revision: 0
# Processed by: cddbd v1.5.2PL0 Copyright (c) Steve Scherf et al.
# Submitted via: audiograbber 1.83.01
#
DISCID=d0106110
DTITLE=Various Artist - Sweden Rock Magazine - 43
DYEAR=2007
DGENRE=Metal
TTITLE0=Annihilator - Clown Parade
TTITLE1=Freedom Call - Mr. Evil
TTITLE2=Marduk - Cold Mouth Prayer
TTITLE3=After Forever - Discord
TTITLE4=Kotipelto - Serenity
TTITLE5=Sonic Syndicate - Denied
TTITLE6=Private Line - Broken Promised Land
TTITLE7=Excalion - The Wingman
TTITLE8=Razorback - The Last Man Standing
TTITLE9=United Enemies - The Dead Boy
TTITLE10=Hinder - Lips Of An Angel
TTITLE11=Emerald Sun - Scream Out Loud
TTITLE12=Decoy - Call Of The Wild
TTITLE13=Seventribe - Love Crap
TTITLE14=Magic Pie - Pointless Masquerade
TTITLE15=Glorious Bankrobbers - Young Alcoholic #1
EXTD=
EXTT0=
EXTT1=
EXTT2=
EXTT3=
EXTT4=
EXTT5=
EXTT6=
EXTT7=
EXTT8=
EXTT9=
EXTT10=
EXTT11=
EXTT12=
EXTT13=
EXTT14=
EXTT15=
PLAYORDER=
